<svg viewBox="0 0 260 70" fill="none" xmlns="http://www.w3.org/2000/svg">
  <path d="M84.0794 49.5364V20.4636H78.4264V49.5364H84.0794ZM94.6933 49.5364V38.115C94.6933 34.3655 96.5969 32.4042 99.0773 32.4042C101.644 32.4042 102.625 34.0194 102.625 36.8171V49.5364H107.961V36.644C107.961 31.6543 106.259 27.9337 100.433 27.9337C97.8083 27.9337 95.8759 28.972 94.3472 31.5678V28.5394H89.3864V49.5364H94.6933ZM117.969 49.5364V38.115C117.969 34.3655 119.873 32.4042 122.324 32.4042C124.92 32.4042 125.872 34.0194 125.872 36.8171V49.5364H131.207V36.644C131.207 31.6543 129.506 27.9337 123.709 27.9337C121.084 27.9337 119.123 28.972 117.594 31.5678V28.5394H112.633V49.5364H117.969ZM142.6 49.5364V32.7503H146.955V28.5394H142.6V27.6164C142.6 25.684 143.408 24.8187 145.023 24.8187C145.657 24.8187 146.753 24.9918 147.33 25.2225L147.994 20.8962C147.33 20.5789 145.34 20.2617 143.725 20.2617C139.399 20.2617 137.38 23.2613 137.38 27.7029V28.5394H134.236V32.7503H137.38V49.5364H142.6ZM155.723 49.5364V19.8579L150.387 21.473V49.5364H155.723ZM173.634 28.5394V39.9608C173.634 43.7103 171.76 45.6716 169.279 45.6716C166.712 45.6716 165.732 44.0564 165.732 41.2587V28.5394H160.396V41.4318C160.396 46.4215 162.097 50.1421 167.924 50.1421C170.548 50.1421 172.481 49.0173 174.009 46.508V49.5364H178.97V28.5394H173.634ZM202.505 40.5377C202.505 40.4223 202.563 39.2398 202.563 38.3168C202.563 31.5678 198.237 27.9337 192.612 27.9337C187.132 27.9337 182.46 31.5389 182.46 39.0379C182.46 46.5369 187.104 50.1421 192.612 50.1421C197.516 50.1421 200.746 47.9501 202.188 43.6526L197.227 42.5855C196.65 44.4891 195.035 45.7004 192.958 45.7004C190.161 45.7004 187.969 44.0853 187.767 40.5377H202.505ZM192.497 32.3754C195.179 32.3754 196.939 34.1636 197.112 36.7882H187.853C188.228 33.8752 190.363 32.3754 192.497 32.3754ZM211.36 49.5364V38.115C211.36 34.3655 213.263 32.4042 215.715 32.4042C218.311 32.4042 219.262 34.0194 219.262 36.8171V49.5364H224.598V36.644C224.598 31.6543 222.897 27.9337 217.099 27.9337C214.475 27.9337 212.542 28.972 210.985 31.5678V28.5394H206.024V49.5364H211.36ZM239.625 45.0659C238.991 45.2678 238.385 45.2966 237.981 45.2966C236.077 45.2966 236.077 43.9987 236.077 42.1817V32.7503H239.942V28.5394H236.077V22.1076L230.742 23.8669V28.5394H227.742V32.7503H230.742V43.3931C230.742 47.5175 232.126 49.9402 236.51 49.9402C237.289 49.9402 239.192 49.7383 240 49.3345L239.625 45.0659Z" fill="black" />
  <path d="M20 35.0341L42.6791 57.7132L65.4264 34.9659L42.7473 12.2868L20 35.0341ZM42.6976 45.4296L32.2836 35.0156L53.1428 34.9844L42.6976 45.4296Z" fill="url(#paint0_linear_5030_157262)" />
  <defs>
    <linearGradient id="paint0_linear_5030_157262" x1="20" y1="12.2868" x2="61.1703" y2="31.4848" gradientUnits="userSpaceOnUse">
      <stop stop-color="#0015D6" />
      <stop offset="1" stop-color="#0989FB" />
    </linearGradient>
  </defs>
</svg>
  