<svg viewBox="0 0 247 48" fill="none" xmlns="http://www.w3.org/2000/svg">
  <path d="M80.0847 39.733V8.72193H74.0548V39.733H80.0847ZM91.4062 39.733V27.5501C91.4062 23.5506 93.4367 21.4586 96.0825 21.4586C98.8206 21.4586 99.8666 23.1815 99.8666 26.1657V39.733H105.558V25.9811C105.558 20.6587 103.743 16.6901 97.5284 16.6901C94.7288 16.6901 92.6676 17.7976 91.037 20.5664V17.3361H85.7455V39.733H91.4062ZM116.234 39.733V27.5501C116.234 23.5506 118.264 21.4586 120.879 21.4586C123.648 21.4586 124.663 23.1815 124.663 26.1657V39.733H130.355V25.9811C130.355 20.6587 128.539 16.6901 122.356 16.6901C119.556 16.6901 117.464 17.7976 115.834 20.5664V17.3361H110.542V39.733H116.234ZM142.507 39.733V21.8278H147.152V17.3361H142.507V16.3516C142.507 14.2904 143.368 13.3674 145.091 13.3674C145.768 13.3674 146.937 13.552 147.552 13.7981L148.26 9.1834C147.552 8.84499 145.429 8.50658 143.707 8.50658C139.092 8.50658 136.938 11.7061 136.938 16.4439V17.3361H133.585V21.8278H136.938V39.733H142.507ZM156.505 39.733V8.07587L150.813 9.7987V39.733H156.505ZM175.61 17.3361V29.519C175.61 33.5185 173.61 35.6105 170.964 35.6105C168.226 35.6105 167.18 33.8877 167.18 30.9035V17.3361H161.489V31.088C161.489 36.4104 163.304 40.3791 169.518 40.3791C172.318 40.3791 174.379 39.1792 176.01 36.5027V39.733H181.301V17.3361H175.61ZM206.406 30.1343C206.406 30.0113 206.467 28.7499 206.467 27.7654C206.467 20.5664 201.852 16.6901 195.853 16.6901C190.008 16.6901 185.024 20.5357 185.024 28.5346C185.024 36.5334 189.977 40.3791 195.853 40.3791C201.083 40.3791 204.529 38.0409 206.067 33.4569L200.776 32.3186C200.16 34.3491 198.437 35.6413 196.222 35.6413C193.238 35.6413 190.9 33.9184 190.685 30.1343H206.406ZM195.73 21.4279C198.591 21.4279 200.468 23.3353 200.653 26.1349H190.777C191.177 23.0276 193.454 21.4279 195.73 21.4279ZM215.85 39.733V27.5501C215.85 23.5506 217.881 21.4586 220.496 21.4586C223.265 21.4586 224.28 23.1815 224.28 26.1657V39.733H229.972V25.9811C229.972 20.6587 228.156 16.6901 221.973 16.6901C219.173 16.6901 217.112 17.7976 215.45 20.5664V17.3361H210.159V39.733H215.85ZM246 34.9644C245.323 35.1798 244.677 35.2105 244.246 35.2105C242.216 35.2105 242.216 33.8261 242.216 31.8879V21.8278H246.338V17.3361H242.216V10.4755L236.524 12.3522V17.3361H233.325V21.8278H236.524V33.1801C236.524 37.5794 238.001 40.1637 242.677 40.1637C243.508 40.1637 245.539 39.9483 246.4 39.5176L246 34.9644Z" fill="black" />
  <path d="M0 24.2637L24.1911 48.4548L48.4548 24.1911L24.2637 0L0 24.2637ZM24.2107 35.3523L13.1025 24.244L35.3523 24.2107L24.2107 35.3523Z" fill="url(#paint0_linear_0_1)" />
  <defs>
    <linearGradient id="paint0_linear_0_1" x1="0" y1="0" x2="43.9149" y2="20.4779" gradientUnits="userSpaceOnUse">
      <stop stop-color="#0015D6" />
      <stop offset="1" stop-color="#0989FB" />
    </linearGradient>
  </defs>
</svg>
  