<svg xmlns="http://www.w3.org/2000/svg" viewBox="0 0 300 300" class="iconLeft">
  <linearGradient gradientTransform="rotate(25)" id="e45a40ee-9257-4fdf-be3e-99f57da833eb" x1="0%" y1="0%" x2="100%" y2="0%">
    <stop offset="0%" stop-color="#0015D6" stop-opacity="1"></stop>
    <stop offset="100%" stop-color="#0989FB" stop-opacity="1"></stop>
  </linearGradient>
  <rect fill="transparent" x="0" y="0" width="300px" height="300px" class="logo-background-square"></rect>
  <g id="8966327c-0f59-4ef4-81c1-7713fab55633" fill="#000000" transform="matrix(2.884213441266711,0,0,2.884213441266711,95.48446404487065,134.252194586616)">
    <path d="M2.98 10.50L2.98 0.42L1.02 0.42L1.02 10.50ZM6.66 10.50L6.66 6.54C6.66 5.24 7.32 4.56 8.18 4.56C9.07 4.56 9.41 5.12 9.41 6.09L9.41 10.50L11.26 10.50L11.26 6.03C11.26 4.30 10.67 3.01 8.65 3.01C7.74 3.01 7.07 3.37 6.54 4.27L6.54 3.22L4.82 3.22L4.82 10.50ZM14.73 10.50L14.73 6.54C14.73 5.24 15.39 4.56 16.24 4.56C17.14 4.56 17.47 5.12 17.47 6.09L17.47 10.50L19.32 10.50L19.32 6.03C19.32 4.30 18.73 3.01 16.72 3.01C15.81 3.01 15.13 3.37 14.60 4.27L14.60 3.22L12.88 3.22L12.88 10.50ZM23.27 10.50L23.27 4.68L24.78 4.68L24.78 3.22L23.27 3.22L23.27 2.90C23.27 2.23 23.55 1.93 24.11 1.93C24.33 1.93 24.71 1.99 24.91 2.07L25.14 0.57C24.91 0.46 24.22 0.35 23.66 0.35C22.16 0.35 21.46 1.39 21.46 2.93L21.46 3.22L20.37 3.22L20.37 4.68L21.46 4.68L21.46 10.50ZM27.82 10.50L27.82 0.21L25.97 0.77L25.97 10.50ZM34.03 3.22L34.03 7.18C34.03 8.48 33.38 9.16 32.52 9.16C31.63 9.16 31.29 8.60 31.29 7.63L31.29 3.22L29.44 3.22L29.44 7.69C29.44 9.42 30.03 10.71 32.05 10.71C32.96 10.71 33.63 10.32 34.16 9.45L34.16 10.50L35.88 10.50L35.88 3.22ZM44.04 7.38C44.04 7.34 44.06 6.93 44.06 6.61C44.06 4.27 42.56 3.01 40.61 3.01C38.71 3.01 37.09 4.26 37.09 6.86C37.09 9.46 38.70 10.71 40.61 10.71C42.31 10.71 43.43 9.95 43.93 8.46L42.21 8.09C42.01 8.75 41.45 9.17 40.73 9.17C39.76 9.17 39.00 8.61 38.93 7.38ZM40.57 4.55C41.50 4.55 42.11 5.17 42.17 6.08L38.96 6.08C39.09 5.07 39.83 4.55 40.57 4.55ZM47.11 10.50L47.11 6.54C47.11 5.24 47.77 4.56 48.62 4.56C49.52 4.56 49.85 5.12 49.85 6.09L49.85 10.50L51.70 10.50L51.70 6.03C51.70 4.30 51.11 3.01 49.10 3.01C48.19 3.01 47.52 3.37 46.98 4.27L46.98 3.22L45.26 3.22L45.26 10.50ZM56.91 8.95C56.69 9.02 56.48 9.03 56.34 9.03C55.68 9.03 55.68 8.58 55.68 7.95L55.68 4.68L57.02 4.68L57.02 3.22L55.68 3.22L55.68 0.99L53.83 1.60L53.83 3.22L52.79 3.22L52.79 4.68L53.83 4.68L53.83 8.37C53.83 9.80 54.31 10.64 55.83 10.64C56.10 10.64 56.76 10.57 57.04 10.43Z"></path>
  </g>
  <g id="272b37d2-63de-4a48-91f8-166acea0b76f" stroke="none" fill="url(#e45a40ee-9257-4fdf-be3e-99f57da833eb)" transform="matrix(1.4195738031234593,0,0,1.4195738031234593,40,127.28681915002466)">
    <path d="M0 16.024L15.976 32 32 15.976 16.024 0 0 16.024zm15.989 7.323l-7.336-7.336 14.694-.022-7.358 7.358z"></path>
  </g>
</svg>